<svg width="50" height="50" viewBox="0 0 50 50" fill="none" xmlns="http://www.w3.org/2000/svg">
<g id="Mask Group">
<g id="Mask Group_2">
<mask id="mask0_2_8" style="mask-type:alpha" maskUnits="userSpaceOnUse" x="0" y="0" width="50" height="50">
<circle id="Ellipse 182" cx="25" cy="25" r="25" fill="#C4C4C4"/>
</mask>
<g mask="url(#mask0_2_8)">
<circle id="Ellipse 183" cx="25" cy="25" r="25" fill="#E6F8FF"/>
<g id="Group">
<path id="Vector" d="M35.0312 58.1544C35.0312 58.39 34.9476 58.6162 34.7775 58.7792C33.9186 59.6016 30.8701 62.0964 25.4931 62.0964C20.1162 62.0964 17.0677 59.6016 16.2088 58.7792C16.0386 58.6162 15.9551 58.39 15.9551 58.1544V25.8518H35.0312V58.1544Z" fill="white"/>
<path id="Vector_2" d="M25.4932 58.9968C18.0535 58.9968 12.0207 52.9639 12.0207 45.5242V37.1784C12.0207 29.7387 18.0535 23.7059 25.4932 23.7059C32.9329 23.7059 38.9657 29.7387 38.9657 37.1784V45.5242C38.9657 52.9639 32.9329 58.9968 25.4932 58.9968Z" fill="#25C0FF"/>
<path id="Vector_3" d="M41.7077 54.5852C40.1339 54.5852 38.8463 53.2976 38.8463 51.7238V40.755C42.0177 40.755 44.5691 43.3064 44.5691 46.4778V51.7238C44.5691 53.2976 43.2815 54.5852 41.7077 54.5852Z" fill="#BDECFF"/>
<path id="Vector_4" d="M9.27841 54.5852C10.8522 54.5852 12.1398 53.2976 12.1398 51.7238V40.755C8.96843 40.755 6.41699 43.3064 6.41699 46.4778V51.7238C6.41699 53.2976 7.70463 54.5852 9.27841 54.5852Z" fill="#BDECFF"/>
<g id="Group 1755">
<path id="Vector_5" d="M25.4931 54.0564C27.742 54.0564 29.5651 52.2333 29.5651 49.9844C29.5651 47.7355 27.742 45.9124 25.4931 45.9124C23.2442 45.9124 21.4211 47.7355 21.4211 49.9844C21.4211 52.2333 23.2442 54.0564 25.4931 54.0564Z" fill="#62D2FF"/>
</g>
<path id="Vector_6" d="M31.4544 13.0948H19.5319C11.496 13.0948 4.9863 19.6045 4.9863 27.6404C4.9863 35.6762 11.496 42.1859 19.5319 42.1859H31.4544C39.4903 42.1859 46 35.6762 46 27.6404C46 19.6045 39.4903 13.0948 31.4544 13.0948Z" fill="#62D2FF"/>
<path id="Vector_7" d="M32.885 20.9637H18.101C13.4989 20.9637 9.75519 24.7074 9.75519 29.3095C9.75519 33.9116 13.4989 37.6553 18.101 37.6553H32.885C37.4871 37.6553 41.2308 33.9116 41.2308 29.3095C41.2308 24.7074 37.4871 20.9637 32.885 20.9637Z" fill="#BDECFF"/>
<path id="Vector_8" d="M37.1207 16.1024C37.3085 16.2704 37.1897 16.5814 36.9378 16.5814H13.3437C13.0918 16.5814 12.973 16.2704 13.1608 16.1024L17.8323 11.9239C17.9833 11.7889 18.1787 11.7143 18.3812 11.7143H31.9002C32.1028 11.7143 32.2982 11.7889 32.4492 11.9239L37.1207 16.1024Z" fill="#BDECFF"/>
<path id="Vector_9" d="M17.3858 31.6941C16.1936 31.6941 15.2397 30.7403 15.2397 29.548V27.6404C15.2397 26.4481 16.1936 25.4943 17.3858 25.4943C18.5781 25.4943 19.5319 26.4481 19.5319 27.6404V29.548C19.5319 30.7403 18.5781 31.6941 17.3858 31.6941Z" fill="#24ABE1"/>
<path id="Vector_10" d="M33.6006 31.6941C32.4084 31.6941 31.4546 30.7403 31.4546 29.548V27.6404C31.4546 26.4481 32.4084 25.4943 33.6006 25.4943C34.7929 25.4943 35.7467 26.4481 35.7467 27.6404V29.548C35.7467 30.7403 34.7929 31.6941 33.6006 31.6941Z" fill="#24ABE1"/>
<path id="Vector 816" d="M23.4025 33.6165L24.4454 34.3118L26.879 32.9212" stroke="#24ABE1" stroke-width="1.39062" stroke-linecap="round" stroke-linejoin="round"/>
</g>
</g>
</g>
</g>
</svg>
