<svg width="178" height="113" viewBox="0 0 178 113" fill="none" xmlns="http://www.w3.org/2000/svg">
<g id="Group 149">
<rect id="Rectangle 14" width="137.749" height="137.749" transform="matrix(0.866025 0.5 -0.866025 0.5 119.294 67.2515)" fill="url(#paint0_linear_2_82)"/>
<rect id="Rectangle 9" width="101.078" height="101.078" transform="matrix(0.866025 0.5 -0.866025 0.5 120.586 47.5277)" fill="url(#paint1_linear_2_82)"/>
<rect id="Rectangle 10" x="-2.98023e-08" y="0.5" width="90.1929" height="90.1929" rx="5.5" transform="matrix(0.866025 0.5 -0.866025 0.5 121.019 47.7777)" stroke="white"/>
<rect id="Rectangle 11" x="-2.98023e-08" y="0.5" width="90.1929" height="90.1929" rx="5.5" transform="matrix(0.866025 0.5 -0.866025 0.5 121.019 47.7777)" stroke="white"/>
<path id="Vector 1" d="M89.2288 43.4837L120.549 61.875L152.233 43.4837" stroke="white" stroke-width="0.518732"/>
<path id="Vector 2" d="M120.549 61.8748V97.7469" stroke="white" stroke-width="0.518732"/>
<g id="Group 7">
<g id="Group 6">
<g id="Rectangle 8" filter="url(#filter0_f_2_82)">
<rect width="36.4184" height="36.4184" transform="matrix(0.866025 0.5 -0.866025 0.5 120.586 71.4326)" fill="#6AC1FF" fill-opacity="0.21"/>
</g>
<rect id="Rectangle 1" width="36.4184" height="36.4184" transform="matrix(0.866025 0.5 -2.20305e-08 1 89.0457 43.4836)" fill="#69D1FD"/>
<rect id="Rectangle 4" width="36.4184" height="36.4184" transform="matrix(0.866025 -0.5 2.20305e-08 1 120.365 61.6929)" fill="#82D9FD"/>
<rect id="Rectangle 2" width="36.4184" height="36.4184" transform="matrix(0.866025 0.5 -0.866025 0.5 120.586 25.2743)" fill="#A6E4FE"/>
</g>
<rect id="Rectangle 5" width="61.6928" height="61.6928" transform="matrix(0.866025 0.5 -2.20305e-08 1 67.1208 30.8465)" fill="url(#paint2_linear_2_82)" fill-opacity="0.5"/>
<rect id="Rectangle 6" width="61.6928" height="61.6928" transform="matrix(0.866025 -0.5 2.20305e-08 1 120.177 61.693)" fill="url(#paint3_linear_2_82)" fill-opacity="0.5"/>
<rect id="Rectangle 7" width="61.6928" height="61.6928" transform="matrix(0.866025 0.5 -0.866025 0.5 120.549 0)" fill="url(#paint4_linear_2_82)" fill-opacity="0.4"/>
</g>
<path id="Vector 3" d="M67.4298 30.8465L120.486 62.0013L174.158 30.8465" stroke="url(#paint5_linear_2_82)" stroke-width="2"/>
<path id="Vector 4" d="M120.485 62.0014V122.769" stroke="url(#paint6_linear_2_82)" stroke-width="2"/>
<rect id="Rectangle 12" width="100.524" height="35.8054" transform="matrix(0.866025 0.5 -2.20305e-08 1 33.5835 98.1113)" fill="url(#paint7_linear_2_82)"/>
<rect id="Rectangle 13" width="101.335" height="35.8054" transform="matrix(0.866025 -0.5 2.20305e-08 1 120.64 148.373)" fill="url(#paint8_linear_2_82)"/>
</g>
<defs>
<filter id="filter0_f_2_82" x="49.0464" y="31.4326" width="143.079" height="116.418" filterUnits="userSpaceOnUse" color-interpolation-filters="sRGB">
<feFlood flood-opacity="0" result="BackgroundImageFix"/>
<feBlend mode="normal" in="SourceGraphic" in2="BackgroundImageFix" result="shape"/>
<feGaussianBlur stdDeviation="20" result="effect1_foregroundBlur_2_82"/>
</filter>
<linearGradient id="paint0_linear_2_82" x1="68.8743" y1="0" x2="68.8743" y2="137.749" gradientUnits="userSpaceOnUse">
<stop stop-color="#E1EBFF"/>
<stop offset="1" stop-color="#BFD4FF" stop-opacity="0.54"/>
</linearGradient>
<linearGradient id="paint1_linear_2_82" x1="50.5391" y1="1.54418e-06" x2="125.69" y2="119.656" gradientUnits="userSpaceOnUse">
<stop stop-color="#F9FAFF"/>
<stop offset="1" stop-color="#E2EDFF"/>
</linearGradient>
<linearGradient id="paint2_linear_2_82" x1="30.8464" y1="6.3051e-07" x2="47.9815" y2="86.7652" gradientUnits="userSpaceOnUse">
<stop stop-color="#0093FD"/>
<stop offset="0.661458" stop-color="#188BFE" stop-opacity="0.338542"/>
<stop offset="1" stop-color="#188BFE" stop-opacity="0"/>
</linearGradient>
<linearGradient id="paint3_linear_2_82" x1="30.8464" y1="6.3051e-07" x2="47.9815" y2="86.7652" gradientUnits="userSpaceOnUse">
<stop stop-color="#0093FD"/>
<stop offset="0.661458" stop-color="#188BFE" stop-opacity="0.338542"/>
<stop offset="1" stop-color="#188BFE" stop-opacity="0"/>
</linearGradient>
<linearGradient id="paint4_linear_2_82" x1="66.6063" y1="-13.8918" x2="38.2172" y2="114.468" gradientUnits="userSpaceOnUse">
<stop stop-color="white"/>
<stop offset="1" stop-color="#188BFE" stop-opacity="0"/>
</linearGradient>
<linearGradient id="paint5_linear_2_82" x1="120.794" y1="30.8465" x2="120.794" y2="62.0013" gradientUnits="userSpaceOnUse">
<stop stop-color="white"/>
<stop offset="1" stop-color="white"/>
</linearGradient>
<linearGradient id="paint6_linear_2_82" x1="120.985" y1="62.0014" x2="120.985" y2="122.769" gradientUnits="userSpaceOnUse">
<stop stop-color="white"/>
<stop offset="1" stop-color="#89AAFF" stop-opacity="0.06"/>
</linearGradient>
<linearGradient id="paint7_linear_2_82" x1="50.2619" y1="5.47002e-07" x2="62.8541" y2="56.2889" gradientUnits="userSpaceOnUse">
<stop stop-color="#F9FAFF"/>
<stop offset="1" stop-color="#E2EDFF"/>
</linearGradient>
<linearGradient id="paint8_linear_2_82" x1="50.6673" y1="5.47002e-07" x2="63.1682" y2="56.3317" gradientUnits="userSpaceOnUse">
<stop stop-color="#F9FAFF"/>
<stop offset="1" stop-color="#E2EDFF"/>
</linearGradient>
</defs>
</svg>
